<?xml version="1.0" encoding="utf-8"?>
<!-- Generator: Adobe Illustrator 15.1.0, SVG Export Plug-In . SVG Version: 6.00 Build 0)  -->
<!DOCTYPE svg PUBLIC "-//W3C//DTD SVG 1.1//EN" "http://www.w3.org/Graphics/SVG/1.1/DTD/svg11.dtd">
<svg version="1.1" id="Layer_1" xmlns="http://www.w3.org/2000/svg" xmlns:xlink="http://www.w3.org/1999/xlink" x="0px" y="0px"
	 width="89px" height="84.22px" viewBox="0 0 89 84.22" enable-background="new 0 0 89 84.22" xml:space="preserve">
<g>
	<path fill="#B41F2F" d="M31.93,83.783c-0.719,0-1.449-0.122-2.163-0.378C12.56,77.223,1,60.785,1,42.5
		C1,24.039,12.711,7.549,30.142,1.468c3.336-1.166,6.986,0.596,8.149,3.934c1.165,3.335-0.597,6.984-3.933,8.148
		C22.06,17.841,13.797,29.475,13.797,42.5c0,12.901,8.156,24.5,20.297,28.86c3.326,1.195,5.053,4.859,3.857,8.185
		C37.014,82.156,34.553,83.783,31.93,83.783z"/>
	<path fill="#3196C3" d="M56.663,83.892c-2.646,0-5.121-1.652-6.042-4.292c-1.164-3.336,0.597-6.985,3.934-8.148
		C66.854,67.16,75.117,55.525,75.117,42.5c0-13.152-8.369-24.822-20.827-29.039c-3.347-1.133-5.142-4.765-4.008-8.113
		c1.133-3.348,4.766-5.144,8.111-4.008C76.05,7.317,87.914,23.857,87.914,42.5c0,18.462-11.711,34.953-29.143,41.034
		C58.073,83.777,57.361,83.892,56.663,83.892z"/>
</g>
</svg>
