<?xml version="1.0" encoding="utf-8"?>
<!-- Generator: Adobe Illustrator 24.2.1, SVG Export Plug-In . SVG Version: 6.00 Build 0)  -->
<svg version="1.1" id="Layer_1" xmlns="http://www.w3.org/2000/svg" xmlns:xlink="http://www.w3.org/1999/xlink" x="0px" y="0px"
	 viewBox="0 0 496.8 193.6" style="enable-background:new 0 0 496.8 193.6;" xml:space="preserve">
<style type="text/css">
	.st0{fill:#FFFFFF;}
</style>
<path class="st0" d="M68.1,0c-6.8,0-13.6,2.6-18.8,7.9l-9.6,9.6l6.1,6.1l9.6-9.6c7.1-7.2,18.6-7.2,25.8,0c7.1,7.2,7.1,18.8,0,26
	l-9.7,9.6l6.1,6.1l9.6-9.6c10.4-10.5,10.4-27.7,0-38.2C81.9,2.6,75,0,68.1,0z M66.5,15.2c-3.4,0-6.7,1.3-9.3,3.9l-8,8l6.1,6.1l8-8
	c1.9-1.9,4.7-1.9,6.6,0s1.9,4.8,0,6.7l-8,8L68,46l8-8c5.2-5.2,5.2-13.7,0-18.9C73.4,16.6,69.9,15.2,66.5,15.2z M33.3,18.6l-6.2,6.2
	l43.1,43.5l5.1,5c7,7.1,10.9,16.6,10.9,26.6h8.6c0-12.3-4.9-24.1-13.5-32.7l-5-5.2L33.3,18.6z M24.7,27.3l-6.2,6.3L61.7,77l6.2-6.2
	L24.7,27.3z M17.4,39.9l-9.6,9.6C-2.6,60-2.6,77.2,7.8,87.7s27.5,10.5,37.9,0l9.6-9.6l-6-6.1l-9.6,9.6c-7.1,7.2-18.6,7.2-25.8,0
	s-7.1-18.8,0-26l9.6-9.6L17.4,39.9z M27,49.6l-8,8c-5.2,5.2-5.2,13.7,0,18.9c5.2,5.2,13.6,5.2,18.7,0l8-8l-6.1-6.1l-8,8
	c-1.9,1.9-4.7,1.9-6.6,0s-1.9-4.8,0-6.7l8-8L27,49.6z"/>
<g>
	<path class="st0" d="M119.5,22.5c-2.3,0-3.6-1.9-3.6-4c0-2.2,1.3-4.2,3.5-4.2h51.2c2.2,0,3.5,2,3.5,4.2c0,2.1-1.4,4-3.5,4h-21.1v61
		c0,2.5-2,3.8-4.5,3.8c-2.5,0-4.5-1.3-4.5-3.8v-61H119.5z"/>
	<path class="st0" d="M209.8,82.9c-0.9,3.3-3.2,4.5-6.1,4.5c-2.9,0-5.3-1.2-6.2-4.6l-17.6-64c-0.1-0.5-0.2-0.9-0.2-1.3
		c0-2.1,1.8-3.3,3.9-3.6c0.5-0.1,0.8-0.1,1.3-0.1c1.8,0,3.4,0.7,4,3l11.6,43.9c1.3,4.9,2.5,13.5,3.3,18.2c0.8-4.8,2.1-13.2,3.4-18.1
		l11.1-42.9c0.7-2.9,2.9-4.1,6-4.1c3,0,5.1,1.2,5.9,4.2l11.1,42.9c1.2,4.7,2.4,13.3,3.3,18.1c0.9-5,2.3-13.5,3.5-18l11.7-44.2
		c0.7-2.2,2.2-3,4.2-3c0.4,0,0.8,0,1.2,0.1c2.1,0.4,3.9,1.5,3.9,3.5c0,0.4-0.1,0.7-0.2,1.1l-18.2,64.4c-0.9,3.3-3.3,4.5-6.2,4.5
		c-2.8,0-5.3-1.1-6.1-4.6L227.7,41c-1.5-5.8-2.5-13.9-3.3-19c-0.9,5.1-2,13-3.5,18.8L209.8,82.9z"/>
	<path class="st0" d="M280.4,17.6c0-2.6,1.9-3.8,4.4-3.8c2.6,0,4.6,1.2,4.6,3.8v65.9c0,2.5-2,3.8-4.6,3.8c-2.5,0-4.4-1.3-4.4-3.8
		V17.6z"/>
	<path class="st0" d="M352.9,17.6c0-2.6,1.9-3.8,4.5-3.8c2.6,0,4.4,1.2,4.4,3.8v63.9c0,3.6-1.9,5.9-5.6,5.9c-4,0-5.5-1.6-7.8-5.3
		l-24.6-39.9c-3.7-6-8.4-15.1-10.5-19.7c0.6,6,1.3,18.9,1.3,32.6v28.6c0,2.5-1.9,3.8-4.4,3.8c-2.6,0-4.5-1.3-4.5-3.8V19.4
		c0-3.4,2.2-5.6,5.9-5.6c4.2,0,5.8,1.7,7.5,4.5l23.4,38c4.3,7,9.5,16.9,11.9,22.1c-0.6-5.8-1.5-19.3-1.5-32.6V17.6z"/>
	<path class="st0" d="M386.7,75.7c0,2.1,1.4,3,3.4,3h33.3c2.4,0,3.7,1.7,3.7,4c0,2.2-1.3,4.1-3.7,4.1h-36c-6.6,0-9.5-2.9-9.5-10
		V24.4c0-7.2,2.9-10,9.5-10h35.2c2.4,0,3.7,1.7,3.7,4c0,2.3-1.3,4.1-3.7,4.1h-32.7c-2.2,0-3.2,1-3.2,3.3v19.3h31.7
		c2.3,0,3.6,1.7,3.6,4c0,2.1-1.4,3.9-3.6,3.9h-31.7V75.7z"/>
	<path class="st0" d="M438.2,24.4c0-7.2,2.9-10,9.5-10h16.6c20.6,0,32.6,13,32.6,35.4c0,23.2-12.3,37-32.6,37h-16.6
		c-6.6,0-9.5-2.9-9.5-10V24.4z M447,75.5c0,2.1,1.1,3.2,3,3.2h13.8c15.1,0,23.9-10.7,23.9-28.8c0-17.8-8.3-27.5-23.6-27.5h-14
		c-1.8,0-3.1,1.1-3.1,3.1V75.5z"/>
</g>
<g>
	<g>
		<path class="st0" d="M349.7,179.9c-1.8,0.7-3.6,1.2-5.4,1.5c-1.8,0.3-3.7,0.5-5.7,0.5c-6.1,0-10.9-1.7-14.2-5
			c-3.3-3.3-5-8.2-5-14.6c0-3.1,0.5-5.9,1.4-8.4c1-2.5,2.3-4.6,4-6.4c1.7-1.8,3.8-3.2,6.2-4.1c2.4-1,5-1.5,7.9-1.5
			c2,0,3.9,0.1,5.7,0.4c1.8,0.3,3.4,0.7,5,1.4v6.4c-1.7-0.9-3.4-1.5-5.1-1.9c-1.7-0.4-3.5-0.6-5.4-0.6c-1.7,0-3.4,0.3-4.9,1
			c-1.5,0.7-2.9,1.6-4,2.8c-1.2,1.2-2.1,2.7-2.7,4.5c-0.7,1.8-1,3.8-1,6c0,4.7,1.1,8.2,3.4,10.5c2.3,2.3,5.5,3.5,9.5,3.5
			c1.8,0,3.6-0.2,5.3-0.6c1.7-0.4,3.4-1,5-1.9L349.7,179.9L349.7,179.9z"/>
		<path class="st0" d="M394.4,180.8c-1.5,0.4-3.1,0.7-4.7,0.8c-1.6,0.2-3.3,0.3-5,0.3c-4.9,0-8.5-1.1-10.9-3.3
			c-2.4-2.2-3.6-5.6-3.6-10.2v-20.3h-10.9v-5.7h10.9v-10.7l6.7-1.7v12.4h17.5v5.7H377v19.7c0,2.8,0.7,4.9,2.2,6.2
			c1.5,1.4,3.7,2.1,6.6,2.1c1.2,0,2.6-0.1,4.1-0.3c1.5-0.2,3-0.5,4.6-0.9L394.4,180.8L394.4,180.8z"/>
		<path class="st0" d="M437.9,181.3h-6l-0.2-6.3c-1.2,1.3-2.3,2.5-3.3,3.3c-1,0.9-2.1,1.6-3.1,2.1c-1,0.5-2.1,0.9-3.1,1.1
			c-1,0.2-2.1,0.3-3.3,0.3c-4,0-7-1.2-9.1-3.5c-2-2.3-3.1-5.9-3.1-10.6v-25.4h6.7v24.9c0,6,2.2,8.9,6.7,8.9c0.8,0,1.6-0.1,2.4-0.4
			c0.8-0.2,1.6-0.7,2.5-1.3c0.9-0.6,1.8-1.4,2.8-2.5c1-1,2.1-2.3,3.3-3.9v-25.8h6.7L437.9,181.3L437.9,181.3z"/>
		<path class="st0" d="M483.1,159.9c0,1,0,1.8,0,2.4c0,0.6-0.1,1.3-0.1,1.8h-27.3c0,4,1.1,7,3.3,9.2c2.2,2.1,5.4,3.2,9.6,3.2
			c1.1,0,2.3,0,3.4-0.1c1.1-0.1,2.2-0.2,3.3-0.4c1.1-0.2,2.1-0.3,3-0.5c1-0.2,1.9-0.4,2.7-0.6v5.5c-1.8,0.5-3.9,0.9-6.2,1.3
			c-2.3,0.3-4.7,0.5-7.2,0.5c-3.3,0-6.2-0.5-8.6-1.4c-2.4-0.9-4.4-2.2-5.9-3.9c-1.5-1.7-2.7-3.8-3.4-6.3c-0.7-2.5-1.1-5.3-1.1-8.5
			c0-2.7,0.4-5.3,1.2-7.8c0.8-2.4,1.9-4.6,3.4-6.4c1.5-1.8,3.4-3.3,5.6-4.4c2.2-1.1,4.7-1.6,7.5-1.6c2.7,0,5.1,0.4,7.2,1.3
			c2.1,0.9,3.9,2.1,5.3,3.6s2.5,3.5,3.3,5.7C482.7,154.6,483.1,157.1,483.1,159.9z M476.1,158.9c0.1-1.7-0.1-3.3-0.5-4.7
			c-0.4-1.4-1.1-2.7-1.9-3.7s-1.9-1.8-3.2-2.4c-1.3-0.6-2.8-0.9-4.5-0.9c-1.5,0-2.8,0.3-4,0.9c-1.2,0.6-2.3,1.4-3.1,2.4
			c-0.9,1-1.6,2.3-2.1,3.7c-0.5,1.4-0.9,3-1,4.8L476.1,158.9L476.1,158.9z"/>
	</g>
	<path class="st0" d="M263.5,190c-0.6,0-1.2-0.1-1.8-0.3c-14.5-5.2-24.3-19.1-24.3-34.5c0-15.6,9.9-29.5,24.6-34.6
		c2.8-1,5.9,0.5,6.9,3.3c1,2.8-0.5,5.9-3.3,6.9c-10.4,3.6-17.4,13.4-17.4,24.4c0,10.9,6.9,20.7,17.1,24.4c2.8,1,4.3,4.1,3.3,6.9
		C267.8,188.6,265.8,190,263.5,190z"/>
	<path class="st0" d="M284.4,190.1c-2.2,0-4.3-1.4-5.1-3.6c-1-2.8,0.5-5.9,3.3-6.9C293,176,300,166.1,300,155.2
		c0-11.1-7.1-21-17.6-24.5c-2.8-1-4.3-4-3.4-6.9c1-2.8,4-4.3,6.8-3.4c14.9,5,24.9,19,24.9,34.8c0,15.6-9.9,29.5-24.6,34.6
		C285.6,190,285,190.1,284.4,190.1z"/>
</g>
<g>
	<path class="st0" d="M182.3,170.7c0,1.6-0.2,3.1-0.7,4.4c-0.5,1.3-1.1,2.4-1.9,3.3s-1.9,1.6-3.1,2.1s-2.6,0.7-4.1,0.7
		c-1.2,0-2.4-0.1-3.6-0.3c-1.2-0.2-2.4-0.6-3.6-1.1V153h3.4v7.7l-0.2,3.7c1-1.3,2-2.3,3.2-2.8s2.3-0.8,3.6-0.8c1.1,0,2.1,0.2,3,0.7
		c0.9,0.5,1.6,1.1,2.2,2c0.6,0.9,1,1.9,1.3,3.1S182.3,169.2,182.3,170.7z M178.8,170.9c0-1-0.1-2-0.2-2.9c-0.2-0.9-0.4-1.6-0.7-2.2
		c-0.3-0.6-0.8-1.1-1.3-1.5c-0.5-0.3-1.1-0.5-1.8-0.5c-0.4,0-0.9,0.1-1.3,0.2s-0.9,0.4-1.4,0.7c-0.5,0.3-1,0.8-1.5,1.3
		s-1.1,1.2-1.7,2v9.6c0.7,0.3,1.4,0.5,2.1,0.6s1.4,0.2,2,0.2c0.8,0,1.5-0.1,2.3-0.4c0.7-0.3,1.4-0.7,1.9-1.3s1-1.4,1.3-2.3
		C178.6,173.5,178.8,172.3,178.8,170.9z"/>
	<path class="st0" d="M205.3,161.1l-6.8,17.8c-0.7,1.8-1.4,3.4-2.2,4.7c-0.7,1.3-1.6,2.4-2.4,3.2s-1.9,1.5-2.9,1.9
		c-1.1,0.4-2.2,0.6-3.5,0.6c-0.3,0-0.7,0-0.9,0c-0.3,0-0.6,0-0.9-0.1V186c0.3,0,0.6,0.1,0.9,0.1c0.3,0,0.7,0,1.1,0
		c0.6,0,1.2-0.1,1.8-0.3c0.5-0.2,1.1-0.5,1.6-0.9c0.5-0.4,1-1,1.4-1.6c0.4-0.7,0.9-1.5,1.3-2.4l-7.9-19.9h3.9l5,13.1l1,3.1l1.1-3.2
		l4.7-13.1H205.3z"/>
</g>
</svg>
