<?xml version="1.0" encoding="utf-8"?>
<!-- Generator: Adobe Illustrator 24.2.1, SVG Export Plug-In . SVG Version: 6.00 Build 0)  -->
<svg version="1.1" id="Layer_1" xmlns="http://www.w3.org/2000/svg" xmlns:xlink="http://www.w3.org/1999/xlink" x="0px" y="0px"
	 viewBox="0 0 100 100" style="enable-background:new 0 0 100 100;" xml:space="preserve">
<style type="text/css">
	.st0{fill:#4D4D4F;}
</style>
<path class="st0" d="M70.6,0C63.8,0,57,2.6,51.8,7.9l-9.6,9.6l6.1,6.1l9.6-9.6c7.1-7.2,18.6-7.2,25.8,0c7.1,7.2,7.1,18.8,0,26
	L74,49.6l6.1,6.1l9.6-9.6c10.4-10.5,10.4-27.7,0-38.2C84.4,2.6,77.5,0,70.6,0z M69,15.2c-3.4,0-6.7,1.3-9.3,3.9l-8,8l6.1,6.1l8-8
	c1.9-1.9,4.7-1.9,6.6,0s1.9,4.8,0,6.7l-8,8l6.1,6.1l8-8c5.2-5.2,5.2-13.7,0-18.9C75.9,16.6,72.4,15.2,69,15.2z M35.8,18.6l-6.2,6.2
	l43.1,43.5l5.1,5c7,7.1,10.9,16.6,10.9,26.6h8.6c0-12.3-4.9-24.1-13.5-32.7l-5-5.2L35.8,18.6z M27.2,27.3L21,33.6L64.2,77l6.2-6.2
	L27.2,27.3z M19.9,39.9l-9.6,9.6C-0.1,60-0.1,77.2,10.3,87.7s27.5,10.5,37.9,0l9.6-9.6l-6-6.1l-9.6,9.6c-7.1,7.2-18.6,7.2-25.8,0
	s-7.1-18.8,0-26L26,46L19.9,39.9z M29.5,49.6l-8,8c-5.2,5.2-5.2,13.7,0,18.9c5.2,5.2,13.6,5.2,18.7,0l8-8l-6.1-6.1l-8,8
	c-1.9,1.9-4.7,1.9-6.6,0s-1.9-4.8,0-6.7l8-8L29.5,49.6z"/>
</svg>
