<?xml version="1.0" encoding="utf-8"?>
<!-- Generator: Adobe Illustrator 24.2.1, SVG Export Plug-In . SVG Version: 6.00 Build 0)  -->
<svg version="1.1" id="Layer_1" xmlns="http://www.w3.org/2000/svg" xmlns:xlink="http://www.w3.org/1999/xlink" x="0px" y="0px"
	 viewBox="0 0 509.7 100" style="enable-background:new 0 0 509.7 100;" xml:space="preserve">
<style type="text/css">
	.st0{fill:#4D4D4F;}
</style>
<path class="st0" d="M68.1,0c-6.8,0-13.6,2.6-18.8,7.9l-9.6,9.6l6.1,6.1l9.6-9.6c7.1-7.2,18.6-7.2,25.8,0c7.1,7.2,7.1,18.8,0,26
	l-9.7,9.6l6.1,6.1l9.6-9.6c10.4-10.5,10.4-27.7,0-38.2C81.9,2.6,75,0,68.1,0z M66.5,15.2c-3.4,0-6.7,1.3-9.3,3.9l-8,8l6.1,6.1l8-8
	c1.9-1.9,4.7-1.9,6.6,0s1.9,4.8,0,6.7l-8,8L68,46l8-8c5.2-5.2,5.2-13.7,0-18.9C73.4,16.6,69.9,15.2,66.5,15.2z M33.3,18.6l-6.2,6.2
	l43.1,43.5l5.1,5c7,7.1,10.9,16.6,10.9,26.6h8.6c0-12.3-4.9-24.1-13.5-32.7l-5-5.2L33.3,18.6z M24.7,27.3l-6.2,6.3L61.7,77l6.2-6.2
	L24.7,27.3z M17.4,39.9l-9.6,9.6C-2.6,60-2.6,77.2,7.8,87.7s27.5,10.5,37.9,0l9.6-9.6l-6-6.1l-9.6,9.6c-7.1,7.2-18.6,7.2-25.8,0
	s-7.1-18.8,0-26l9.6-9.6L17.4,39.9z M27,49.6l-8,8c-5.2,5.2-5.2,13.7,0,18.9c5.2,5.2,13.6,5.2,18.7,0l8-8l-6.1-6.1l-8,8
	c-1.9,1.9-4.7,1.9-6.6,0s-1.9-4.8,0-6.7l8-8L27,49.6z"/>
<g>
	<path class="st0" d="M119.5,22.5c-2.3,0-3.6-1.9-3.6-4c0-2.2,1.3-4.2,3.5-4.2h51.2c2.2,0,3.5,2,3.5,4.2c0,2.1-1.4,4-3.5,4h-21.1v61
		c0,2.5-2,3.8-4.5,3.8c-2.5,0-4.5-1.3-4.5-3.8v-61H119.5z"/>
	<path class="st0" d="M209.8,82.9c-0.9,3.3-3.2,4.5-6.1,4.5c-2.9,0-5.3-1.2-6.2-4.6l-17.6-64c-0.1-0.5-0.2-0.9-0.2-1.3
		c0-2.1,1.8-3.3,3.9-3.6c0.5-0.1,0.8-0.1,1.3-0.1c1.8,0,3.4,0.7,4,3l11.6,43.9c1.3,4.9,2.5,13.5,3.3,18.2c0.8-4.8,2.1-13.2,3.4-18.1
		l11.1-42.9c0.7-2.9,2.9-4.1,6-4.1c3,0,5.1,1.2,5.9,4.2l11.1,42.9c1.2,4.7,2.4,13.3,3.3,18.1c0.9-5,2.3-13.5,3.5-18l11.7-44.2
		c0.7-2.2,2.2-3,4.2-3c0.4,0,0.8,0,1.2,0.1c2.1,0.4,3.9,1.5,3.9,3.5c0,0.4-0.1,0.7-0.2,1.1l-18.2,64.4c-0.9,3.3-3.3,4.5-6.2,4.5
		c-2.8,0-5.3-1.1-6.1-4.6L227.7,41c-1.5-5.8-2.5-13.9-3.3-19c-0.9,5.1-2,13-3.5,18.8L209.8,82.9z"/>
	<path class="st0" d="M280.4,17.6c0-2.6,1.9-3.8,4.4-3.8c2.6,0,4.6,1.2,4.6,3.8v65.9c0,2.5-2,3.8-4.6,3.8c-2.5,0-4.4-1.3-4.4-3.8
		V17.6z"/>
	<path class="st0" d="M352.9,17.6c0-2.6,1.9-3.8,4.5-3.8c2.6,0,4.4,1.2,4.4,3.8v63.9c0,3.6-1.9,5.9-5.6,5.9c-4,0-5.5-1.6-7.8-5.3
		l-24.6-39.9c-3.7-6-8.4-15.1-10.5-19.7c0.6,6,1.3,18.9,1.3,32.6v28.6c0,2.5-1.9,3.8-4.4,3.8c-2.6,0-4.5-1.3-4.5-3.8V19.4
		c0-3.4,2.2-5.6,5.9-5.6c4.2,0,5.8,1.7,7.5,4.5l23.4,38c4.3,7,9.5,16.9,11.9,22.1c-0.6-5.8-1.5-19.3-1.5-32.6V17.6z"/>
	<path class="st0" d="M386.7,75.7c0,2.1,1.4,3,3.4,3h33.3c2.4,0,3.7,1.7,3.7,4c0,2.2-1.3,4.1-3.7,4.1h-36c-6.6,0-9.5-2.9-9.5-10
		V24.4c0-7.2,2.9-10,9.5-10h35.2c2.4,0,3.7,1.7,3.7,4c0,2.3-1.3,4.1-3.7,4.1h-32.7c-2.2,0-3.2,1-3.2,3.3v19.3h31.7
		c2.3,0,3.6,1.7,3.6,4c0,2.1-1.4,3.9-3.6,3.9h-31.7V75.7z"/>
	<path class="st0" d="M438.2,24.4c0-7.2,2.9-10,9.5-10h16.6c20.6,0,32.6,13,32.6,35.4c0,23.2-12.3,37-32.6,37h-16.6
		c-6.6,0-9.5-2.9-9.5-10V24.4z M447,75.5c0,2.1,1.1,3.2,3,3.2h13.8c15.1,0,23.9-10.7,23.9-28.8c0-17.8-8.3-27.5-23.6-27.5h-14
		c-1.8,0-3.1,1.1-3.1,3.1V75.5z"/>
</g>
</svg>
